<?xml version="1.0" encoding="UTF-8" standalone="no"?>
<svg
   height="24px"
   viewBox="0 -960 960 960"
   width="24px"
   version="1.1"
   sodipodi:docname="check.svg"
   inkscape:version="1.1.2 (0a00cf5339, 2022-02-04)"
   xmlns:inkscape="http://www.inkscape.org/namespaces/inkscape"
   xmlns:sodipodi="http://sodipodi.sourceforge.net/DTD/sodipodi-0.dtd"
   xmlns="http://www.w3.org/2000/svg"
   xmlns:svg="http://www.w3.org/2000/svg">
  <style>
      path, g {
       fill: #249E21;
      }
      circle {
        fill: #ffffff;
      }
      @media (prefers-color-scheme: dark) {
       path, g {
        fill: #87ca81;
       }
       circle {
        fill: #1E1E1E;
       }
      }
   </style>
  <circle
     cx="480"
     cy="-480"
     r="460.71182" />
  <path
     d="m424-296 282-282-56-56-226 226-114-114-56 56 170 170Zm56 216q-83 0-156-31.5T197-197q-54-54-85.5-127T80-480q0-83 31.5-156T197-763q54-54 127-85.5T480-880q83 0 156 31.5T763-763q54 54 85.5 127T880-480q0 83-31.5 156T763-197q-54 54-127 85.5T480-80Z" />
</svg>
